<svg width="100" height="112" viewBox="0 0 100 112" fill="none" xmlns="http://www.w3.org/2000/svg">
<path fill-rule="evenodd" clip-rule="evenodd" d="M82.5878 111.111C83.6194 107.284 79.6057 104.382 79.6057 104.382C79.0799 97.9845 74.9527 92.7272 71.8772 89.645C72.2369 89.5525 72.4416 89.4946 72.4775 89.4844L72.4831 89.4828C90.6736 85.3708 99.3904 75.4194 99.9569 67.3817C100.514 59.5109 95.5179 55.5215 93.9992 54.5008C95.4154 41.0508 90.8006 30.1278 79.5053 20.1519C78.9116 19.6273 78.3061 19.1222 77.689 18.6368C78.4535 11.6547 77.9095 1.86442 69.3039 0.223673C61.679 -1.23007 58.4209 4.67126 57.0299 10.1454C54.7931 9.85197 52.48 9.70486 50.0928 9.70486H50.083H49.917H49.9072C47.4747 9.70486 45.1191 9.85782 42.8428 10.1628C41.4543 4.68375 38.1973 -1.23161 30.5644 0.223673C21.9196 1.87501 21.41 11.7465 22.1899 18.7334C21.6146 19.1891 21.0495 19.662 20.4947 20.1519C9.19941 30.1229 4.58461 41.0508 6.00079 54.5008C4.48206 55.5215 -0.513628 59.5109 0.0430765 67.3817C0.606923 75.3821 9.24577 85.2786 27.2214 89.4156C24.4898 92.3436 20.6817 97.5043 19.5643 104.382C19.5643 104.382 15.5507 107.284 16.5823 111.111H82.5878Z" fill="#434548"/>
</svg>
